<?xml version="1.0" encoding="UTF-8" standalone="no"?>
<svg
   xmlns:dc="http://purl.org/dc/elements/1.1/"
   xmlns:cc="http://creativecommons.org/ns#"
   xmlns:rdf="http://www.w3.org/1999/02/22-rdf-syntax-ns#"
   xmlns:svg="http://www.w3.org/2000/svg"
   xmlns="http://www.w3.org/2000/svg"
   xmlns:sodipodi="http://sodipodi.sourceforge.net/DTD/sodipodi-0.dtd"
   xmlns:inkscape="http://www.inkscape.org/namespaces/inkscape"
   width="1600"
   height="1600"
   version="1.1"
   id="svg20"
   sodipodi:docname="linuxforeveryone_orange_new.svg"
   inkscape:version="0.92.5 (2060ec1f9f, 2020-04-08)">
  <sodipodi:namedview
     pagecolor="#ffffff"
     bordercolor="#666666"
     borderopacity="1"
     objecttolerance="10"
     gridtolerance="10"
     guidetolerance="10"
     inkscape:pageopacity="0"
     inkscape:pageshadow="2"
     inkscape:window-width="1870"
     inkscape:window-height="1023"
     id="namedview22"
     showgrid="false"
     inkscape:zoom="0.5"
     inkscape:cx="640.26853"
     inkscape:cy="815.72521"
     inkscape:window-x="50"
     inkscape:window-y="32"
     inkscape:window-maximized="1"
     inkscape:current-layer="svg20" />
  <metadata
     id="metadata9">
    <rdf:RDF>
      <cc:Work>
        <dc:format>image/svg+xml</dc:format>
        <dc:type
           rdf:resource="http://purl.org/dc/dcmitype/StillImage" />
        <dc:title></dc:title>
      </cc:Work>
    </rdf:RDF>
  </metadata>
  <defs
     id="defs7" />
  <ellipse
     style="fill:#000000"
     id="path27"
     cx="800"
     cy="800"
     rx="800"
     ry="800" />
  <path
     style="fill:#ffffff"
     d="m 820.57994,129.09604 c 71.3286,-1.18668 141.33799,17.31934 208.52336,39.35609 119.3098,40.94944 224.4499,118.23288 301.3578,216.92949 80.0683,100.22506 133.0784,224.14001 143.0712,351.39211 6.0799,66.92879 5.8223,107.78207 -17.0937,207.80929 C 1392.7677,901.6979 1349.6636,697.58397 1345.9838,645.05123 1319.0441,504.8636 1259.2269,433.06572 1125.4623,467.84664 997.22998,508.3324 995.93177,608.10922 1005.3304,722.24318 1007.6165,795.96364 990.53306,875.91433 934.62444,928.66727 900.30137,875.02841 915.66051,764.64268 901.49332,707.99837 886.59712,655.13379 842.04949,606.5269 784.13578,602.8496 c -124.72155,-8.12088 -178.9178,64.99112 -172.66163,173.29532 -2.18041,45.22534 2.80302,91.22723 -5.95788,135.89541 -11.71351,44.98686 -31.45124,85.07138 -64.16958,118.12987 -3.57849,-65.73579 -2.19918,-136.84092 -38.37828,-195.48906 -24.20537,-39.10807 -73.25596,-54.74282 -117.63032,-49.26699 -58.18165,2.86934 -104.77466,57.22689 -110.12948,112.59194 -16.69994,79.27131 3.78242,194.42871 -61.59264,238.32311 -4.67457,-5.0018 -11.39177,-15.0331 -15.12716,-22.5366 C 116.72339,959.84265 95.792286,774.64075 144.46233,607.30843 195.97047,431.144 323.87629,277.92721 490.89169,197.23361 c 99.34151,-50.00074 211.74802,-72.05609 322.89909,-68.15728 2.26304,0.007 4.52609,0.013 6.78916,0.0197 z"
     id="path258" />
  <path
     style="fill:#ffffff"
     d="m 469.80284,1050.4012 c -50.10959,43.1036 -96.57533,64.0441 -153.0381,16.9329 -2.04172,33.8372 -52.74418,107.8422 -39.90135,146.3601 38.60626,67.3852 148.13272,158.6278 231.07505,181.7707 100.77331,-170.0055 10.44159,-206.4157 -38.1356,-345.0637 z"
     id="path185"
     inkscape:connector-curvature="0"
     sodipodi:nodetypes="ccccc" />
  <path
     style="fill:#ffdd55"
     d="m 379.48515,978.88293 c -5.83048,0.14657 -11.75047,0.59732 -17.26357,2.64851 -17.32795,7.4663 -33.66049,19.55626 -45.37621,32.36086 -1.62285,1.9092 -3.3117,3.8179 -4.63754,5.937 71.99905,54.8712 98.21596,16.7669 153.40816,0.3855 -37.81388,43.2821 -128.37248,60.9084 -155.04114,2.8135 -1.58478,2.9916 -3.14626,7.4732 -2.17188,10.7815 15.3832,42.3208 50.79791,46.3934 67.46283,48.2804 34.64433,0.061 55.5057,-15.5048 76.27881,-28.4263 11.41772,-7.7975 23.96759,-22.4385 16.22329,-35.2347 -17.95201,-18.92387 -66.80998,-36.85673 -88.88275,-39.54636 z"
     id="path187"
     inkscape:connector-curvature="0" />
  <path
     style="fill:#ffdd55"
     d="m 207.9052,279.30799 c 17.77906,22.49805 40.81442,7.93158 56.23173,1.19618 -14.99844,17.68565 -47.41567,21.46434 -57.04121,-0.0338 -1.31141,2.40526 -0.8584,5.47313 0.72575,7.63765 11.2687,17.00006 34.11225,16.21649 52.2225,4.49693 3.94514,-2.25242 8.18891,-6.04687 7.95236,-10.4602 -1.37528,-6.47238 -8.62561,-8.1552 -13.3807,-10.45732 -18.84021,-9.54703 -22.72028,-14.39628 -46.71043,7.62056 z"
     id="path191"
     transform="scale(3.1250078)" />
  <path
     style="fill:#ffffff"
     d="m 215.8144,243.49673 c -2.75829,-0.10277 -5.27187,1.58951 -6.85079,3.74925 -2.75292,3.80494 -3.46052,8.79468 -2.73066,13.35732 0.62398,3.6782 2.27608,7.24215 4.90757,9.91022 -4.05698,-21.08023 8.03734,-25.55199 11.23223,-8.41122 6.24093,-6.0934 2.10751,-18.87261 -6.55835,-18.60557 z"
     id="path193"
     transform="scale(3.1250078)" />
  <path
     style="fill:#ffffff"
     d="m 253.39464,239.46833 c -3.55975,0.009 -6.82624,2.00206 -9.07448,4.66144 -2.33773,2.73939 -3.98554,6.11102 -4.57548,9.67093 -0.10909,1.5245 -0.27148,3.11718 0.16702,4.60359 0.5329,1.59583 1.83339,2.88772 3.44965,3.37398 0.34982,0.091 0.73394,0.36583 1.0857,0.32248 0.80573,-4.05906 1.99612,-9.13463 5.52997,-10.97466 9.55774,-3.13156 10.62187,9.72363 9.05999,15.81755 -0.14376,0.68488 -0.39333,1.40289 -0.45749,2.07574 1.78799,0.5387 3.8069,0.82517 5.58521,0.10669 2.19,-0.95937 3.13583,-3.3854 3.64187,-5.56272 0.85579,-3.65678 0.92259,-7.54782 -0.24034,-11.14696 -1.30498,-4.15105 -3.66555,-8.12211 -7.23615,-10.7022 -2.0128,-1.42611 -4.45485,-2.28941 -6.93547,-2.24586 z"
     id="path197"
     transform="scale(3.1250078)" />
  <path
     style="fill:#ffffff"
     d="m 338.55269,923.85126 c -33.29775,3.9941 -38.79399,52.67563 -11.72887,71.67005 -13.5336,-43.72392 11.6009,-64.57388 28.32329,-22.22068 4.08169,-0.55315 8.67364,-1.77416 12.31365,-2.95313 -2.16982,-18.18529 -8.30836,-46.95946 -28.90807,-46.49624 z"
     id="path199"
     inkscape:connector-curvature="0" />
  <path
     style="fill:#ffffff"
     d="m 433.95838,915.04639 c -19.36617,1.20504 -37.30572,20.24224 -36.32815,39.1032 -0.38207,7.86476 4.94032,15.32878 11.93874,18.5452 3.25104,-33.20615 39.62588,-40.8101 40.6232,-1.93948 -0.006,6.8218 -2.45685,13.26876 -3.95251,19.82974 5.21208,2.47276 11.27893,5.0183 16.28154,6.59299 24.38919,-37.49694 2.7622,-84.76478 -28.56282,-82.13165 z"
     id="path201"
     inkscape:connector-curvature="0" />
  <path
     style="fill:#ffffff"
     d="m 383.26474,201.11987 c -8.97491,0.71282 -15.04072,8.9676 -16.10163,16.98081 -1.1418,5.41167 0.33548,9.47357 6.40775,9.5735 2.09969,-26.26442 22.57932,-11.7443 14.85109,6.81155 -0.16267,0.42076 -0.33974,0.83725 -0.4816,1.26528 2.58611,0.75663 5.18355,1.51607 7.77369,2.23319 1.99907,-3.88506 3.76337,-7.97521 4.44634,-12.32068 1.14515,-12.62961 -5.43936,-24.68464 -16.89564,-24.54365 z"
     id="path203"
     transform="scale(3.1250078)" />
  <path
     style="fill:#ffffff"
     d="m 333.66231,238.08812 c 1.74768,-0.43454 1.98454,-0.76776 2.67611,-1.37868 -1.08868,-3.58075 -2.65374,-7.11753 -2.71461,-10.91734 0.0132,-4.44158 3.86799,-10.57398 8.24499,-7.53392 2.97881,2.58318 4.01437,6.04599 4.74275,9.44428 4.56964,-0.50117 5.37243,-2.8747 5.19212,-6.91397 -0.83867,-6.62714 -3.87985,-15.63923 -10.92881,-15.59263 -15.91063,1.12474 -9.98643,28.10704 -7.21255,32.89226 z"
     id="path205"
     transform="scale(3.1250078)" />
  <path
     style="fill:#ffdd55"
     d="m 359.19877,229.7154 c -10.8575,1.23861 -18.24452,8.54614 -25.74847,14.543 -1.29179,1.04651 -2.46836,2.24911 -3.33837,3.67432 26.01507,22.51422 50.86317,4.97886 65.73538,0.62959 -17.8284,19.87277 -59.38534,18.15528 -66.09446,0.0882 -0.6479,1.20934 -0.65245,2.43939 -0.58618,3.8082 2.99327,10.68997 19.5726,21.85917 31.48922,22.60884 11.0465,-0.93213 37.50451,-15.16036 39.23087,-23.68702 0.41386,-2.74302 -0.89826,-5.5649 -3.12366,-7.17667 -13.09539,-7.4427 -24.37358,-14.0978 -37.56433,-14.48848 z"
     id="path207"
     transform="scale(3.1250078)" />
  <path
     style="fill:#ffffff"
     d="m 400.75267,260.22004 c -27.35998,18.49339 -44.98213,30.08631 -67.63482,4.76695 -1.24977,18.24222 -14.03285,30.28949 -27.13782,46.66748 20.47728,34.99094 25.40962,82.3074 29.52343,96.31445 20.9766,-0.26176 19.74884,24.61859 23.16899,32.82734 38.38489,-18.13883 93.5537,-69.73115 71.88379,-107.03308 -13.60713,-24.94482 -21.08362,-48.72092 -29.70694,-73.18049 z"
     id="path211"
     transform="scale(3.1250078)"
     inkscape:connector-curvature="0"
     sodipodi:nodetypes="cccccccc" />
  <path
     style="fill:#ffffff"
     d="m 268.98228,292.07843 c -24.33876,16.90286 -39.23138,19.55417 -59.24463,5.07422 -2.83223,17.00274 -9.73123,34.64112 -15.97604,48.38888 -5.86377,11.63041 -4.45698,11.03192 5.55514,23.44901 14.0534,16.54003 19.70614,41.65187 16.93478,63.50425 71.55187,111.14357 87.94336,-111.06722 52.81672,-140.23027 z"
     id="path213"
     transform="scale(3.1250078)"
     inkscape:connector-curvature="0"
     sodipodi:nodetypes="ccccccc" />
  <path
     style="fill:#ffdd55"
     d="m 539.49289,1368.9825 c -4.09307,8.8968 -14.56703,24.8608 -13.30972,34.9967 21.56043,18.0151 123.0377,39.9211 169.91018,47.0184 17.79382,2.9954 -6.14302,-41.2426 -9.53037,-49.2342 -13.01347,-23.2491 -31.71902,-24.4428 -52.75585,-13.801 -72.10268,35.7142 -78.56173,-29.3018 -84.87774,-28.2332 -6.46815,0.3829 -6.77774,4.8993 -9.4365,9.2532 z"
     id="path215" />
  <path
     style="fill:#ffdd55"
     d="m 296.99369,408.59959 c -13.55392,-2.53889 -8.84855,37.4352 -15.23421,56.99253 23.44212,-0.64394 55.21371,-10.41457 72.5399,-22.54006 -8.07835,-38.86244 -13.38721,-25.62228 -39.81895,-17.79644 -14.37381,2.53456 -14.04047,-14.78858 -17.48674,-16.65603 z"
     id="path217"
     transform="scale(3.1250078)" />
</svg>
