<?xml-model (null)?>
<svg xmlns="http://www.w3.org/2000/svg" width="512" height="512">
  <linearGradient id="a" x1="50" y1="450" x2="450" y2="50" gradientUnits="userSpaceOnUse">
    <stop offset="0" stop-color="green"/>
    <stop offset="1" stop-color="#0f0"/>
  </linearGradient>
  <path fill="url(#a)" d="M168.351 449.224c-44.223-4.533-81.07-29.246-101.343-67.97-5.844-11.163-8.842-19.92-12.163-35.526-1.691-7.95-1.73-8.453-1.719-21.966.013-14.86.718-21.056 3.765-33.075 13.41-52.901 57.596-90.44 111.787-94.972 16.73-1.399 33.199.217 47.484 4.659 11.028 3.428 12.667 3.76 14.68 2.972 1.162-.455 25.875-24.76 71.211-70.04 38.187-38.137 69.727-69.341 70.09-69.341.858 0 66.31 65.457 66.31 66.315 0 .359-2.952 3.612-6.56 7.229l-6.561 6.576 3.405 3.737c1.874 2.055 9.4 9.776 16.725 17.158l13.319 13.423-11.113 10.73c-6.113 5.903-12.408 11.929-13.991 13.393l-2.877 2.66-16.96-16.953-16.96-16.953-7.417 7.926c-4.08 4.36-7.413 8.099-7.409 8.31.006.21 3.69 3.798 8.187 7.974 4.498 4.177 12.08 11.72 16.849 16.763l8.67 9.169-2.078 2.043c-1.142 1.124-7.44 7.192-13.994 13.486l-11.918 11.444-16.972-16.961-16.972-16.96-8.263 8.415a21524.415 21524.415 0 01-25.372 25.763c-18.769 19.029-21.67 22.333-21.67 24.673 0 .844.845 4.231 1.878 7.527 6.083 19.4 7.702 33.155 6.23 52.943-2.157 29.028-15.317 57.297-36.413 78.223-7.343 7.283-11.581 10.74-20.238 16.506-16.366 10.902-36.993 18.346-56.792 20.496-4.865.528-20.423.656-24.835.204m24.678-80.121c9.816-2.92 15.792-6.553 22.514-13.685 8.957-9.505 12.642-19.04 12.65-32.741.007-9.135-1.255-14.776-5.046-22.561-4.796-9.852-10.958-16.15-20.355-20.81-8.845-4.386-21.484-6.46-29.884-4.903-17.695 3.277-30.04 12.212-36.727 26.579-2.9 6.234-3.99 10.11-4.651 16.544-2.535 24.69 13.889 46.71 39.262 52.636 5.343 1.248 16.226.73 22.237-1.059z"/>
</svg>
