<?xml version="1.0" encoding="iso-8859-1"?>
<!-- Generator: Adobe Illustrator 18.0.0, SVG Export Plug-In . SVG Version: 6.00 Build 0)  -->
<!DOCTYPE svg PUBLIC "-//W3C//DTD SVG 1.1//EN" "http://www.w3.org/Graphics/SVG/1.1/DTD/svg11.dtd">
<svg version="1.1" id="Capa_1" xmlns="http://www.w3.org/2000/svg" xmlns:xlink="http://www.w3.org/1999/xlink" x="0px" y="0px"
	 viewBox="0 0 58 58" style="enable-background:new 0 0 58 58;" xml:space="preserve">
<g>
	<polygon style="fill:#D1D0BF;" points="0,12.5 0,12.604 0,53.371 0,53.5 0.129,53.5 57.541,53.5 57.871,53.5 58,53.5 58,53.371 
		58,12.604 58,12.5 	"/>
	<path style="fill:#B2AF94;" d="M0,12.501l27.139,27.267c1.049,0.976,2.674,0.976,3.723,0L58,12.5L0,12.501z"/>
	<path style="fill:#A3A081;" d="M53,45.5h-8c-0.552,0-1-0.447-1-1s0.448-1,1-1h8c0.552,0,1,0.447,1,1S53.552,45.5,53,45.5z"/>
	<path style="fill:#A3A081;" d="M53,41.5h-8c-0.552,0-1-0.447-1-1s0.448-1,1-1h8c0.552,0,1,0.447,1,1S53.552,41.5,53,41.5z"/>
	<path style="fill:#A3A081;" d="M53,49.5H40c-0.552,0-1-0.447-1-1s0.448-1,1-1h13c0.552,0,1,0.447,1,1S53.552,49.5,53,49.5z"/>
	<rect x="2" y="8.5" style="fill:#C4C2A5;" width="54" height="4"/>
	<rect x="4" y="4.5" style="fill:#E0DCC3;" width="50" height="4"/>
</g>
<g>
</g>
<g>
</g>
<g>
</g>
<g>
</g>
<g>
</g>
<g>
</g>
<g>
</g>
<g>
</g>
<g>
</g>
<g>
</g>
<g>
</g>
<g>
</g>
<g>
</g>
<g>
</g>
<g>
</g>
</svg>
